<svg xmlns="http://www.w3.org/2000/svg" viewBox="0 0 192 192">
  <rect width="192" height="192" rx="32" fill="#1a56db"/>
  <!-- Corner brackets -->
  <path d="M24 60V24h36" fill="none" stroke="white" stroke-width="10" stroke-linecap="round" stroke-linejoin="round"/>
  <path d="M168 60V24h-36" fill="none" stroke="white" stroke-width="10" stroke-linecap="round" stroke-linejoin="round"/>
  <path d="M24 132v36h36" fill="none" stroke="white" stroke-width="10" stroke-linecap="round" stroke-linejoin="round"/>
  <path d="M168 132v36h-36" fill="none" stroke="white" stroke-width="10" stroke-linecap="round" stroke-linejoin="round"/>
  <!-- Barcode lines -->
  <rect x="44" y="72" width="8" height="48" rx="2" fill="white"/>
  <rect x="58" y="72" width="4" height="48" rx="2" fill="white"/>
  <rect x="68" y="72" width="10" height="48" rx="2" fill="white"/>
  <rect x="84" y="72" width="5" height="48" rx="2" fill="white"/>
  <rect x="95" y="72" width="8" height="48" rx="2" fill="white"/>
  <rect x="109" y="72" width="4" height="48" rx="2" fill="white"/>
  <rect x="119" y="72" width="10" height="48" rx="2" fill="white"/>
  <rect x="135" y="72" width="5" height="48" rx="2" fill="white"/>
  <rect x="146" y="72" width="8" height="48" rx="2" fill="white"/>
</svg>
